<!-- /public/images/kibbe-logo.svg -->
<svg width="180" height="36" viewBox="0 0 560 112" xmlns="http://www.w3.org/2000/svg" role="img" aria-label="Kibbe">
  <defs>
    <linearGradient id="g" x1="0" y1="0" x2="1" y2="1">
      <stop offset="0%" stop-color="#7C3AED"></stop>
      <stop offset="100%" stop-color="#2563EB"></stop>
    </linearGradient>
  </defs>
  <!-- Monogram -->
  <circle cx="56" cy="56" r="48" fill="url(#g)"></circle>
  <path d="M48 28 v56 h10 v-22 l22 22 h14 L70 62 l24-34H78L58 54V28Z" fill="#FFFFFF"></path>
  <!-- Wordmark -->
  <g fill="#0F172A">
    <path d="M138 82V30h12v19l16-19h15l-19 22 20 30h-14l-14-22-4 5v17h-12z"></path>
    <path d="M201 82V30h12v52h-12z"></path>
    <path d="M222 60c0-18 12-31 30-31 18 0 30 13 30 31s-12 31-30 31c-18 0-30-13-30-31zm48 0c0-11-7-19-18-19s-18 8-18 19 7 19 18 19 18-8 18-19z"></path>
    <path d="M296 30h12v21c4-5 10-8 17-8 13 0 23 10 23 26 0 16-10 26-23 26-7 0-13-3-17-8v7h-12V30zm45 39c0-9-6-15-14-15-7 0-14 6-14 15 0 9 7 15 14 15 8 0 14-6 14-15z"></path>
    <path d="M362 30h12v52h-12z"></path>
  </g>
</svg>
